PathFileType	4	(X/Y/Z)	./resultDataOpenSim/trcMotMarkerGrf/sub10/qtm-12-05.trc
DataRate	CameraRate	NumFrames	NumMarkers	Units	OrigDataRate	OrigDataStartFrame	OrigNumFrames
250.000000	250.000000	14	24	m	250.000000	64	507
Frame#	Time	L.Toe.Tip			R.Toe.Tip			L.Ankle.Lat			R.Ankle.Lat			L.Ankle.Med			R.Ankle.Med			L.Heel			R.Heel			L.Knee.Lat			R.Knee.Lat			L.Knee.Med			R.Knee.Med			L.Thigh.Upper			R.Thigh.Upper			L.ASIS			R.ASIS			V.Sacral			L.Acromium			R.Acromium			C7			L.Elbow			R.Elbow			L.Wrist.Lat			R.Wrist.Lat
		X1	Y1	Z1	X2	Y2	Z2	X3	Y3	Z3	X4	Y4	Z4	X5	Y5	Z5	X6	Y6	Z6	X7	Y7	Z7	X8	Y8	Z8	X9	Y9	Z9	X10	Y10	Z10	X11	Y11	Z11	X12	Y12	Z12	X13	Y13	Z13	X14	Y14	Z14	X15	Y15	Z15	X16	Y16	Z16	X17	Y17	Z17	X18	Y18	Z18	X19	Y19	Z19	X20	Y20	Z20	X21	Y21	Z21	X22	Y22	Z22	X23	Y23	Z23	X24	Y24	Z24

64	0.252	-1.4437132	0.053301248	-0.17816327	-0.74785513	0.041415447	-0.07579453	-1.4461146	0.18693316	-0.23878279	-0.89034095	0.050861251	-0.045010205	-1.4120662	0.18481	-0.16259522	-0.86994891	0.083202313	-0.12567868	-1.4803561	0.23866664	-0.18903713	-0.93651646	0.02864836	-0.097796143	-1.1519233	0.42518291	-0.29016777	-0.90685164	0.45160287	0.009051224	-1.118745	0.37932805	-0.18106951	-0.90946289	0.45900339	-0.11902736	-1.0930469	0.80520854	-0.30205819	-1.0192775	0.85024525	0.075159096	-1.0142471	0.91145633	-0.24796997	-0.96684683	0.93913309	-0.012901501	-1.1863931	0.94255881	-0.091339402	-1.0364962	1.4002092	-0.26679744	-1.0740771	1.3917747	0.054282715	-1.1380281	1.4234195	-0.1165285	-1.0986164	1.0569803	-0.34681086	-1.212189	1.0798281	0.08111622	-0.88134078	0.92951376	-0.32516603	-1.1891908	0.86109598	0.18203516
65	0.256	-1.4390904	0.05507805	-0.18013544	-0.74752935	0.041149718	-0.075816645	-1.4365231	0.18989759	-0.24020082	-0.88961149	0.050867204	-0.045088761	-1.4022933	0.1867121	-0.1638684	-0.86959168	0.083080441	-0.12583593	-1.4690023	0.24247578	-0.19012953	-0.93646426	0.028705963	-0.097850387	-1.1413787	0.42494937	-0.29130016	-0.90427001	0.45140964	0.0091934383	-1.1077235	0.3793698	-0.18195625	-0.90635398	0.45879399	-0.11892965	-1.0862326	0.8053501	-0.301952	-1.0141688	0.85081771	0.07576837	-1.0083833	0.91160934	-0.24763586	-0.96164442	0.9396204	-0.012500835	-1.1812249	0.94286044	-0.091714934	-1.0314369	1.4009016	-0.26624416	-1.0686056	1.3919783	0.055014448	-1.1329193	1.4240759	-0.1154954	-1.093942	1.0580894	-0.3472091	-1.2054861	1.0793993	0.082521716	-0.87752328	0.92926629	-0.32550392	-1.1809081	0.86048781	0.18265452
66	0.26	-1.43342	0.057244467	-0.18285733	-0.74720336	0.040908613	-0.075874341	-1.4270819	0.19272623	-0.24144745	-0.88863782	0.050876289	-0.045171765	-1.3909568	0.18877885	-0.1656281	-0.86921175	0.082976494	-0.12601924	-1.4577642	0.24591036	-0.19087426	-0.93642139	0.028748896	-0.09790954	-1.1307129	0.42479233	-0.2923467	-0.90194376	0.45127523	0.0093034137	-1.0967727	0.37969751	-0.18269048	-0.90337707	0.45872638	-0.11890753	-1.0794521	0.80555929	-0.30189197	-1.0086252	0.85143741	0.076443664	-1.0025958	0.91177683	-0.24739914	-0.95642076	0.94006379	-0.012098113	-1.1760896	0.94313586	-0.092066755	-1.0263452	1.4015948	-0.26574885	-1.0630636	1.3921738	0.055715116	-1.1278137	1.4248171	-0.11462345	-1.0892918	1.059198	-0.34758947	-1.1988084	1.0790231	0.083989172	-0.87374694	0.92898965	-0.32590745	-1.1722152	0.85986856	0.18324904
67	0.264	-1.4267998	0.059773369	-0.18591676	-0.74687838	0.040695204	-0.075974981	-1.4178355	0.19541755	-0.24252181	-0.88776767	0.050903598	-0.045273069	-1.3790517	0.19094131	-0.16754174	-0.86879164	0.082889528	-0.12623197	-1.4467937	0.24898261	-0.19141327	-0.93638275	0.028779797	-0.097970752	-1.1199431	0.42472904	-0.29329925	-0.89977154	0.45127329	0.0093817811	-1.0858938	0.38028592	-0.18329169	-0.90054649	0.45880494	-0.11893772	-1.0727038	0.80584239	-0.30187406	-1.0030899	0.85200618	0.077077354	-0.99685488	0.91199599	-0.24723501	-0.95119569	0.94046985	-0.011690694	-1.1709885	0.94338046	-0.092407874	-1.0212348	1.4022982	-0.2653011	-1.0574132	1.3923757	0.056363034	-1.1226828	1.4256188	-0.11377943	-1.0846765	1.0603174	-0.34795861	-1.1921442	1.0786756	0.085509311	-0.87002002	0.92868668	-0.32638268	-1.1632004	0.85924998	0.18380652
68	0.268	-1.4194471	0.062500037	-0.18877715	-0.74654983	0.040510812	-0.076117684	-1.4085935	0.19799778	-0.24350139	-0.88725499	0.050939778	-0.045387532	-1.3678395	0.19307101	-0.16914229	-0.86833072	0.082815873	-0.12646684	-1.4361713	0.25180624	-0.19201633	-0.93634636	0.028802502	-0.098036452	-1.1090813	0.42478573	-0.29414021	-0.89761519	0.45143729	0.0094539599	-1.0750579	0.38109026	-0.18378673	-0.89791165	0.45902053	-0.11897184	-1.0659702	0.80620667	-0.30188213	-0.99799378	0.85244438	0.077570937	-0.99113227	0.91229625	-0.24710917	-0.94599184	0.94084832	-0.011279447	-1.1659323	0.94359853	-0.092756128	-1.0161168	1.4030212	-0.26488487	-1.051642	1.3925845	0.056938006	-1.1175281	1.4264745	-0.11291991	-1.0801105	1.061456	-0.34833512	-1.1854756	1.0783231	0.087068449	-0.86634803	0.92836515	-0.3269271	-1.1540192	0.85863389	0.18432016
69	0.272	-1.4114209	0.065225826	-0.19121188	-0.74621913	0.04035195	-0.076288767	-1.3991258	0.20050919	-0.2444569	-0.88700859	0.050947933	-0.045469031	-1.3576141	0.19513331	-0.17028261	-0.86785289	0.08275262	-0.12670799	-1.4258976	0.25449864	-0.19286802	-0.93631589	0.028819926	-0.09811747	-1.0981529	0.42498722	-0.29485575	-0.8953927	0.45170445	0.0095477004	-1.0641798	0.38206807	-0.18420202	-0.89547114	0.45935197	-0.11897862	-1.0592288	0.80665538	-0.30187101	-0.99340082	0.85276899	0.077905212	-0.98542231	0.91269767	-0.24699606	-0.94082162	0.94121341	-0.01086275	-1.1609354	0.94380618	-0.093127093	-1.010978	1.4037701	-0.26447567	-1.0458022	1.3927937	0.057448929	-1.1123668	1.4273752	-0.11205396	-1.0756016	1.0626124	-0.34873185	-1.1787841	1.0779376	0.088651189	-0.86273426	0.92803575	-0.32753114	-1.1447416	0.85801597	0.18480851
70	0.276	-1.4026461	0.067789173	-0.19329065	-0.74590116	0.040212906	-0.076464153	-1.3893201	0.20297496	-0.24540464	-0.8868331	0.050919362	-0.04549528	-1.3478777	0.19717992	-0.17111096	-0.86738797	0.082699146	-0.12694408	-1.4158992	0.25708762	-0.19393016	-0.93629714	0.028833161	-0.098217832	-1.0872168	0.42533452	-0.29545794	-0.89315192	0.45196195	0.009668272	-1.0531541	0.38319088	-0.1845456	-0.89316854	0.45976802	-0.11895276	-1.0524836	0.80717868	-0.3018085	-0.9891063	0.85306484	0.0781176	-0.97972784	0.91322214	-0.24689272	-0.93569263	0.94158349	-0.010428421	-1.1560058	0.94402352	-0.093532348	-1.0057873	1.4045466	-0.26405554	-1.0399714	1.3930048	0.057928318	-1.1072194	1.4282957	-0.11120723	-1.0711391	1.0637785	-0.34913091	-1.1720533	1.0775031	0.090242502	-0.8591836	0.92770833	-0.32818028	-1.1353375	0.85738903	0.18530907
71	0.28	-1.3930682	0.070111852	-0.1951454	-0.74561896	0.040090512	-0.076623175	-1.3791538	0.20538168	-0.24633955	-0.88668216	0.050890351	-0.04550359	-1.3382336	0.19924979	-0.17178801	-0.86695618	0.082654362	-0.1271715	-1.4060859	0.2595212	-0.19503398	-0.93629329	0.028841995	-0.098320281	-1.0763144	0.42580639	-0.29598065	-0.89104069	0.45213916	0.0097935316	-1.0420284	0.38443118	-0.18479865	-0.89092859	0.46023442	-0.11890813	-1.0457964	0.80774125	-0.30173887	-0.98492574	0.85339889	0.07824516	-0.97402803	0.91389817	-0.24680549	-0.93062372	0.94197137	-0.0099581822	-1.1511398	0.944267	-0.093982087	-1.0005432	1.4053493	-0.26362671	-1.0341993	1.393237	0.058402684	-1.1021061	1.4292096	-0.11039746	-1.0667011	1.0649492	-0.34949577	-1.1652516	1.0770152	0.091816297	-0.85570426	0.92739124	-0.32885678	-1.1257976	0.85676307	0.1858352
72	0.284	-1.3827062	0.072207254	-0.19686884	-0.74539322	0.03998476	-0.076758525	-1.3686618	0.20769631	-0.24726868	-0.88657803	0.050888584	-0.045530156	-1.3286605	0.20132697	-0.17237006	-0.86657545	0.082614507	-0.12738412	-1.3964092	0.26171914	-0.19601182	-0.93630444	0.02884645	-0.098401211	-1.0654194	0.42638319	-0.29645087	-0.88924439	0.45224102	0.0098775741	-1.0310835	0.38574527	-0.1849449	-0.88861149	0.4607198	-0.11888912	-1.0392682	0.80830114	-0.30176599	-0.98079398	0.85378524	0.078306338	-0.96828679	0.91474602	-0.24672652	-0.92564987	0.94238015	-0.0094375045	-1.1463266	0.94454911	-0.094483499	-0.99530843	1.4061753	-0.26320432	-1.0285114	1.3935171	0.05887978	-1.097047	1.4301023	-0.10963035	-1.0622714	1.066127	-0.34980117	-1.158293	1.0764649	0.09330654	-0.85230857	0.92709093	-0.32954969	-1.1162037	0.85617707	0.1863451
73	0.288	-1.3716322	0.074122181	-0.19852052	-0.74523325	0.039896796	-0.076867922	-1.3579908	0.20988316	-0.24819189	-0.88651073	0.050909802	-0.045574688	-1.3191936	0.20337028	-0.1728653	-0.86626695	0.082576441	-0.12757006	-1.3868629	0.26360937	-0.19676069	-0.93632929	0.028847595	-0.098454007	-1.0544835	0.42705926	-0.29686735	-0.88777814	0.45231997	0.0098936718	-1.0205351	0.38709534	-0.18501262	-0.88604551	0.46120126	-0.11894869	-1.0329614	0.8088532	-0.30194219	-0.97670765	0.85421945	0.078315893	-0.96250967	0.91575349	-0.24664193	-0.92081719	0.94281219	-0.0088597799	-1.1415543	0.94488414	-0.09503709	-0.99016563	1.4070259	-0.26279939	-1.0229433	1.3938567	0.059361975	-1.0920564	1.4309692	-0.10890772	-1.0578415	1.0673151	-0.35002753	-1.1510365	1.0758141	0.0946024	-0.84901193	0.92680917	-0.33025591	-1.1066425	0.85566838	0.18678592
74	0.292	-1.3599303	0.075882217	-0.2001613	-0.74513523	0.039829107	-0.076942834	-1.347318	0.21191391	-0.24907912	-0.88646311	0.050942994	-0.045625149	-1.3096826	0.20535162	-0.17332019	-0.86604336	0.082541112	-0.12771953	-1.377438	0.26516644	-0.19730331	-0.93636548	0.028846945	-0.0984884	-1.0435082	0.42783641	-0.2972026	-0.88631457	0.45243521	0.0098852932	-1.0102804	0.38847468	-0.18504913	-0.8832661	0.46166742	-0.11906782	-1.0268167	0.80944448	-0.3021936	-0.97264588	0.85472205	0.078311886	-0.95677464	0.91687311	-0.24655806	-0.91616886	0.94327162	-0.0082276658	-1.1368082	0.94529257	-0.095634801	-0.98514846	1.4079109	-0.26241063	-1.0175263	1.39425	0.059851347	-1.0871345	1.4318134	-0.10823193	-1.0534111	1.0685115	-0.35016363	-1.1434172	1.0750337	0.095654294	-0.84582614	0.92654464	-0.33096644	-1.0970994	0.85523961	0.18715328
75	0.296	-1.3476821	0.077493575	-0.20185298	-0.74509275	0.039783369	-0.076974721	-1.3366824	0.21377355	-0.24989571	-0.88643229	0.050983846	-0.045673201	-1.2999574	0.207252	-0.17380872	-0.86590088	0.082511445	-0.1278282	-1.3680842	0.26642882	-0.19778016	-0.93640893	0.028846226	-0.098516616	-1.0325491	0.42871598	-0.29741889	-0.88446836	0.45261062	0.0099266239	-1.0001372	0.38988197	-0.18505606	-0.88057685	0.46210559	-0.11915168	-1.0206816	0.81014177	-0.30237905	-0.96851169	0.8553293	0.078362672	-0.95117321	0.91805771	-0.24649705	-0.91170264	0.94375677	-0.0075512208	-1.1320716	0.94578998	-0.096265113	-0.98024112	1.4088395	-0.26202553	-1.0122533	1.3946903	0.060344262	-1.0822707	1.432641	-0.10760849	-1.0490066	1.0697221	-0.35025593	-1.1356108	1.074193	0.096613502	-0.8427522	0.92630056	-0.33166948	-1.0874868	0.85486985	0.18747307
76	0.3	-1.3349838	0.07896071	-0.20361304	-0.7451038	0.039756797	-0.076964397	-1.3260127	0.21544994	-0.25063858	-0.88642088	0.051029116	-0.045713775	-1.2900328	0.20904357	-0.17436156	-0.86582645	0.082488921	-0.12789531	-1.3587341	0.26745927	-0.19831872	-0.93645345	0.028846681	-0.098545331	-1.0216569	0.42970142	-0.2974986	-0.88222963	0.45281758	0.010018985	-0.99004373	0.39130957	-0.18499647	-0.87822804	0.46249145	-0.11913848	-1.0144813	0.81097802	-0.30241908	-0.96416014	0.85605137	0.078532463	-0.94573185	0.91928996	-0.24647136	-0.90732947	0.94427187	-0.0068340357	-1.1273373	0.94637138	-0.096922212	-0.97541695	1.4098096	-0.26162578	-1.0070945	1.3951749	0.060840804	-1.0774532	1.4334567	-0.10704578	-1.0446721	1.0709667	-0.35038767	-1.1279318	1.0734361	0.097728248	-0.8397767	0.92608853	-0.33236658	-1.0777455	0.8545458	0.18776215
77	0.304	-1.3219414	0.080285407	-0.20541343	-0.7451641	0.039744863	-0.076917148	-1.3152593	0.21693247	-0.25132694	-0.88642557	0.051073963	-0.045746551	-1.2799542	0.21070547	-0.17497326	-0.86580858	0.082473313	-0.12792456	-1.3493552	0.2682854	-0.19891813	-0.93649222	0.028847416	-0.098574752	-1.0108161	0.43079911	-0.29747625	-0.87998206	0.45299619	0.010057272	-0.97993491	0.39276869	-0.1848508	-0.87621147	0.46280009	-0.11904173	-1.0082937	0.81193553	-0.30234579	-0.9596025	0.8568491	0.078819782	-0.94041679	0.92056914	-0.24647645	-0.90294332	0.94484384	-0.0060671894	-1.1226074	0.94701956	-0.097602128	-0.97065431	1.4108133	-0.26119808	-1.0020307	1.3957022	0.06135041	-1.0726719	1.4342653	-0.10654606	-1.0404264	1.0722553	-0.35058684	-1.120561	1.072858	0.099079346	-0.83687977	0.92591879	-0.33306646	-1.0679096	0.85427705	0.18803182
